#!OML:ASF F:\twosubjects\two\wednesday\Session 1\rory1.ASF
:FULLY-SPECIFIED
:DEGREES
260
root -3.33498 17.3332 -16.6921 228.213 69.5786 -133.459
lowerback 8.80373 0.497204 -5.91327
upperback 2.19733 0.181808 -2.6808
thorax -2.65658 0.173866 0.519731
lowerneck -0.395919 -21.7936 -20.3657
upperneck 4.49806 -32.8303 30.0244
head 10.3271 -15.4524 8.00925
rclavicle -3.26007e-014 -8.26944e-014
rhumerus 103.519 -74.8329 -141.714
rradius 11.2534
rwrist 5.67539
rhand -2.26259 6.05816
rfingers 7.12502
rthumb 23.4215 -22.5365
lclavicle -3.26007e-014 -8.26944e-014
lhumerus -22.9196 4.13025 30.4037
lradius 30.4784
lwrist 5.32658
lhand -26.529 18.5269
lfingers 7.12502
lthumb 0.0348552 48.5067
rfemur -12.7776 10.0862 27.6955
rtibia 32.6231
rfoot -15.9357 -12.4897
rtoes -4.85287
lfemur -36.1427 10.5553 -11.0993
ltibia 78.0381
lfoot -17.1688 7.11606
ltoes -15.6589
261
root -3.12905 17.3374 -16.8816 231.193 69.9782 -130.88
lowerback 8.62872 0.409149 -5.50434
upperback 2.02648 0.0948476 -2.39533
thorax -2.73434 0.124567 0.597735
lowerneck 0.0339222 -21.7099 -20.7726
upperneck 4.20993 -32.7364 30.2503
head 10.2581 -15.4744 8.19728
rclavicle -3.81667e-014 -1.01778e-013
rhumerus 103.561 -75.1374 -141.267
rradius 11.1256
rwrist 6.14819
rhand -1.90736 7.23594
rfingers 7.12502
rthumb 23.7622 -21.3148
lclavicle -3.81667e-014 -1.01778e-013
lhumerus -23.4016 3.67056 30.7648
lradius 30.3983
lwrist 6.18901
lhand -26.5152 18.834
lfingers 7.12502
lthumb 0.0481897 48.8137
rfemur -12.0625 10.6394 27.7209
rtibia 31.9185
rfoot -16.3108 -12.4242
rtoes -2.37888
lfemur -37.5393 10.0367 -10.3305
ltibia 76.7542
lfoot -18.2672 6.78721
ltoes -11.6319
262
root -2.91944 17.3393 -17.0662 234.268 70.2838 -128.345
lowerback 8.3384 0.334248 -5.04818
upperback 1.87124 0.0390837 -2.16038
thorax -2.733 0.0892931 0.593469
lowerneck -0.0475594 -21.893 -20.8561
upperneck 4.29378 -32.9907 30.0873
head 10.3401 -15.5863 8.05889
rclavicle -5.56597e-015 4.45278e-014
rhumerus 105.93 -75.2192 -143.223
rradius 11.0669
rwrist 7.14508
rhand -2.24072 6.82996
rfingers 7.12502
rthumb 23.4425 -21.762
lclavicle -5.56597e-015 4.45278e-014
lhumerus -23.6333 3.51801 31.0508
lradius 30.3666
lwrist 6.83392
lhand -26.0326 19.0036
lfingers 7.12502
lthumb 0.514269 48.9827
rfemur -11.5284 10.9412 27.7941
rtibia 31.2943
rfoot -16.8395 -12.3288
rtoes 0.777361
lfemur -38.949 9.67984 -9.5961
ltibia 75.234
lfoot -18.783 7.19742
ltoes -14.3037
263
root -2.70337 17.3451 -17.2466 237.518 70.4974 -125.509
lowerback 8.18155 0.338011 -4.40772
upperback 1.76751 0.0965923 -2.07408
thorax -2.7568 0.11092 0.319202
lowerneck -0.333203 -22.1592 -20.3635
upperneck 4.52646 -33.3173 29.6606
head 10.3555 -15.7008 7.73809
rclavicle 4.37326e-014 9.54166e-015
rhumerus 64.5173 -75.3542 -100.862
rradius 12.1065
rwrist -6.87413
rhand -7.63042 6.48398
rfingers 7.12502
rthumb 18.2644 -22.6785
lclavicle 4.37326e-014 9.54166e-015
lhumerus -23.4484 3.40224 31.1088
lradius 30.2019
lwrist 6.90178
lhand -25.9184 19.1294
lfingers 7.12502
lthumb 0.624514 49.1082
rfemur -10.9369 10.7363 28.1473
rtibia 30.7964
rfoot -16.534 -13.1033
rtoes -2.15962
lfemur -40.056 9.33266 -8.68036
ltibia 73.4753
lfoot -19.1763 7.40204
ltoes -17.3865
264
root -2.48135 17.3582 -17.4245 240.602 70.9777 -122.647
lowerback 8.16491 0.350608 -4.16968
upperback 1.69888 0.127978 -1.99241
thorax -2.82012 0.124094 0.267105
lowerneck -0.267629 -22.1883 -19.8019
upperneck 4.32173 -33.2159 29.2343
head 10.0386 -15.6873 7.59137
rclavicle -1.59028e-015 -5.08889e-014
rhumerus 73.3295 -76.5448 -109.5
rradius 11.7351
rwrist -2.34446
rhand -5.57388 7.83635
rfingers 7.12502
rthumb 20.2419 -21.1289
lclavicle -1.59028e-015 -5.08889e-014
lhumerus -23.5007 3.73656 31.0837
lradius 29.9817
lwrist 6.42551
lhand -26.0804 18.8479
lfingers 7.12502
lthumb 0.468058 48.8271
rfemur -10.2259 10.3522 28.2588
rtibia 30.4609
rfoot -15.9752 -13.8201
rtoes -4.74388
lfemur -40.6072 8.98548 -7.98419
ltibia 71.4253
lfoot -19.9449 7.09053
ltoes -16.0087
265
root -2.2576 17.3782 -17.6031 242.68 72.074 -120.811
lowerback 8.07441 0.287905 -4.71327
upperback 1.72325 0.00682364 -2.03923
thorax -2.73933 0.0672871 0.535778
lowerneck 0.153214 -21.8359 -20.2704
upperneck 3.86356 -32.8282 30.2295
head 10.0449 -15.5535 8.11907
rclavicle -1.35174e-014 -3.18055e-014
rhumerus 79.2732 -76.7778 -115.186
rradius 11.5935
rwrist 0.395514
rhand -4.8665 7.88007
rfingers 7.12502
rthumb 20.9217 -21.0117
lclavicle -1.35174e-014 -3.18055e-014
lhumerus -23.6779 4.49674 31.0079
lradius 29.7055
lwrist 5.89493
lhand -25.482 18.0956
lfingers 7.12502
lthumb 1.04606 48.0727
rfemur -9.6098 9.72105 27.4464
rtibia 30.3604
rfoot -15.6427 -13.9202
rtoes -4.8792
lfemur -40.8289 8.50852 -8.23038
ltibia 69.1254
lfoot -20.5735 7.28161
ltoes -17.4843
266
root -2.03334 17.3973 -17.7752 245.547 72.7142 -118.092
lowerback 7.99367 0.183921 -4.72371
upperback 1.84846 -0.118982 -1.98345
thorax -2.55878 0.000276561 0.612807
lowerneck 0.387085 -21.8186 -20.5222
upperneck 3.42812 -32.8122 30.6556
head 10.0022 -15.5889 8.30545
rclavicle -2.38542e-015 3.81667e-014
rhumerus 83.0005 -76.7048 -118.574
rradius 11.5634
rwrist 2.21259
rhand -3.20659 7.26095
rfingers 7.12502
rthumb 22.5157 -21.4463
lclavicle -2.38542e-015 3.81667e-014
lhumerus -23.7289 4.93635 30.938
lradius 29.513
lwrist 5.57734
lhand -24.3471 17.6798
lfingers 7.12502
lthumb 2.1421 47.6488
rfemur -9.11432 9.18618 27.1246
rtibia 30.6167
rfoot -15.3396 -13.9418
rtoes -5.33888
lfemur -40.9047 7.9979 -7.92953
ltibia 66.7198
lfoot -20.6097 7.5487
ltoes -21.2277
267
root -1.80623 17.4064 -17.9331 249.809 72.6982 -113.793
lowerback 8.06927 0.13699 -4.12072
upperback 1.96846 -0.129648 -1.7269
thorax -2.4779 -0.0131826 0.542128
lowerneck 0.265502 -21.8847 -20.5903
upperneck 3.4692 -32.9278 30.7446
head 10.1021 -15.6278 8.28768
rclavicle -2.38542e-015 2.22639e-014
rhumerus 86.4275 -76.6361 -121.702
rradius 11.467
rwrist 3.79091
rhand -1.83801 7.20373
rfingers 7.12502
rthumb 23.8288 -21.3384
lclavicle -2.38542e-015 2.22639e-014
lhumerus -23.8458 4.64123 30.9977
lradius 29.4728
lwrist 5.73497
lhand -24.1417 17.623
lfingers 7.12502
lthumb 2.34054 47.5899
rfemur -8.73695 9.37798 27.6375
rtibia 31.3714
rfoot -15.2442 -14.1175
rtoes -4.99662
lfemur -40.6481 7.51817 -6.64451
ltibia 64.2407
lfoot -20.8 6.93387
ltoes -19.8899
268
root -1.57956 17.4035 -18.0876 254.259 72.9257 -109.29
lowerback 8.2476 0.284584 -3.76072
upperback 2.05884 0.0917465 -1.64015
thorax -2.49228 0.0942839 0.407542
lowerneck 0.381351 -21.8538 -20.4452
upperneck 3.17444 -32.863 30.996
head 10.0013 -15.6207 8.38511
rclavicle -2.06736e-014 1.90833e-014
rhumerus 92.78 -76.8142 -127.866
rradius 11.3606
rwrist 5.68925
rhand -2.23772 7.9756
rfingers 7.12502
rthumb 23.4454 -20.616
lclavicle -2.06736e-014 1.90833e-014
lhumerus -23.4556 4.85708 31.0488
lradius 29.2275
lwrist 5.3574
lhand -24.371 17.5135
lfingers 7.12502
lthumb 2.11906 47.4827
rfemur -8.73072 9.69312 27.7383
rtibia 32.7195
rfoot -15.275 -14.0927
rtoes -3.93675
lfemur -40.0496 6.93127 -5.62815
ltibia 61.7023
lfoot -21.3826 6.1377
ltoes -17.2881
269
root -1.35012 17.4017 -18.2479 259.247 73.7805 -104.458
lowerback 8.17463 0.470712 -3.99099
upperback 2.10485 0.324264 -1.80339
thorax -2.41197 0.210602 0.344619
lowerneck 0.784723 -22.0933 -20.0639
upperneck 2.32019 -33.0547 31.0805
head 9.63874 -15.7963 8.34944
rclavicle -3.97569e-015 3.18055e-015
rhumerus 101.433 -76.5749 -136.44
rradius 11.1436
rwrist 7.95442
rhand -2.75084 8.93099
rfingers 7.12502
rthumb 22.9531 -19.7226
lclavicle -3.97569e-015 3.18055e-015
lhumerus -22.9994 5.74738 30.8925
lradius 28.9443
lwrist 4.35774
lhand -24.0054 17.7167
lfingers 7.12502
lthumb 2.47218 47.6822
rfemur -9.3525 9.66724 26.8307
rtibia 34.6032
rfoot -15.1385 -13.3294
rtoes -2.84744
lfemur -39.3267 6.21509 -5.42018
ltibia 59.0422
lfoot -21.7037 5.84222
ltoes -17.7247
270
root -1.11503 17.3933 -18.4068 264.653 74.9035 -99.0963
lowerback 8.05559 0.575221 -4.6439
upperback 2.28515 0.428449 -2.05397
thorax -2.16381 0.262887 0.442436
lowerneck 0.62134 -22.0078 -20.0902
upperneck 2.25587 -32.9444 31.3486
head 9.68986 -15.73 8.45099
rclavicle 1.51076e-014 1.27222e-014
rhumerus 97.7174 -76.6077 -132.502
rradius 11.1227
rwrist 7.01253
rhand -2.93624 8.91698
rfingers 7.12502
rthumb 22.7752 -19.7586
lclavicle 1.51076e-014 1.27222e-014
lhumerus -22.6556 6.46124 30.6824
lradius 28.6189
lwrist 3.82007
lhand -23.8908 18.0757
lfingers 7.12502
lthumb 2.58286 48.0398
rfemur -10.2269 9.42763 25.3816
rtibia 37.1096
rfoot -14.4202 -12.1881
rtoes -4.83965
lfemur -38.2998 5.10753 -5.57772
ltibia 56.3467
lfoot -21.6256 5.77761
ltoes -19.5286
271
root -0.881168 17.3957 -18.565 270.055 75.9973 -93.2338
lowerback 8.43908 0.693008 -5.48869
upperback 2.67885 0.523539 -2.26569
thorax -1.97384 0.311322 0.684378
lowerneck 0.140459 -22.0776 -20.0929
upperneck 2.35962 -33.037 31.4409
head 9.85584 -15.7171 8.39118
rclavicle -7.95139e-016 5.725e-014
rhumerus 90.6874 -76.5301 -125.1
rradius 11.1888
rwrist 5.04545
rhand -3.31165 7.99141
rfingers 7.12502
rthumb 22.4148 -20.728
lclavicle -7.95139e-016 5.725e-014
lhumerus -22.1288 7.4064 30.6071
lradius 28.1121
lwrist 3.37346
lhand -24.1772 18.2876
lfingers 7.12502
lthumb 2.30619 48.2549
rfemur -10.8779 9.27473 23.8583
rtibia 40.1638
rfoot -14.2005 -10.059
rtoes 7.16253
lfemur -36.5304 3.38979 -5.73939
ltibia 53.5964
lfoot -21.4611 5.17965
ltoes -19.4101
272
root -0.646246 17.3832 -18.7208 276.907 76.8693 -85.8294
lowerback 8.8633 0.783811 -6.45924
upperback 3.03189 0.563598 -2.34458
thorax -1.84639 0.329479 1.13731
lowerneck -0.234332 -22.1209 -19.9953
upperneck 2.39078 -33.0044 31.1589
head 9.83297 -15.676 8.25573
rclavicle -3.97569e-015 -3.81667e-014
rhumerus 97.4033 -75.5497 -131.731
rradius 10.8615
rwrist 6.7349
rhand -3.73359 7.23224
rfingers 7.12502
rthumb 22.0098 -21.5354
lclavicle -3.97569e-015 -3.81667e-014
lhumerus -22.0629 8.5538 30.5067
lradius 27.7988
lwrist 2.48644
lhand -24.4591 18.59
lfingers 7.12502
lthumb 2.03394 48.56
rfemur -11.8665 9.56157 22.3582
rtibia 43.7967
rfoot -12.0539 -9.69758
rtoes 1.18453
lfemur -34.5643 1.43254 -5.79488
ltibia 50.9794
lfoot -20.984 4.47693
ltoes -20.2731
273
root -0.411095 17.3323 -18.8727 284.704 76.8175 -77.7592
lowerback 8.89647 0.790583 -6.81876
upperback 3.32721 0.564866 -2.15683
thorax -1.55978 0.316753 1.53389
lowerneck -0.739073 -22.1388 -19.8517
upperneck 2.50435 -32.848 30.4332
head 9.71064 -15.5776 8.00269
rclavicle -7.95139e-016 3.18055e-014
rhumerus 109.09 -73.4479 -143.586
rradius 10.4072
rwrist 10.5448
rhand -3.41032 7.61422
rfingers 7.12502
rthumb 22.3201 -21.1166
lclavicle -7.95139e-016 3.18055e-014
lhumerus -22.2976 9.51223 30.4396
lradius 27.7285
lwrist 1.89559
lhand -24.7641 19.0735
lfingers 7.12502
lthumb 1.73938 49.0462
rfemur -13.492 10.0158 21.475
rtibia 47.5807
rfoot -9.2139 -9.082
rtoes -5.25329
lfemur -33.1928 -0.0342819 -5.37159
ltibia 49.4078
lfoot -19.859 6.10575
ltoes -34.4137
274
root -0.176403 17.2288 -19.0223 292.72 76.7561 -69.5125
lowerback 9.47571 1.04569 -6.16758
upperback 3.14695 0.890342 -2.78179
thorax -2.07624 0.502456 0.477754
lowerneck -0.120221 -22.2143 -19.9453
upperneck 2.47032 -33.0612 30.5
head 9.67897 -15.7426 8.03868
rclavicle -2.38542e-015 3.18055e-015
rhumerus 110.808 -73.9407 -145.455
rradius 10.4158
rwrist 10.7218
rhand -2.30094 8.44943
rfingers 7.12502
rthumb 23.3847 -20.1499
lclavicle -2.38542e-015 3.18055e-015
lhumerus -21.4118 8.65312 30.0854
lradius 27.6202
lwrist 2.31845
lhand -24.9167 19.2932
lfingers 7.12502
lthumb 1.59202 49.267
rfemur -15.6652 10.2668 20.1708
rtibia 51.79
rfoot -6.72271 -7.68139
rtoes -3.25485
lfemur -32.0452 -0.61154 -5.79345
ltibia 48.532
lfoot -17.6294 3.98968
ltoes -18.6177
